<svg xmlns="http://www.w3.org/2000/svg" viewBox="0 0 100 100">
  <!-- 警告三角形背景 -->
  <polygon points="50,5 95,90 5,90" fill="#FFF3CD" stroke="#FF8C00" stroke-width="3"/>
  <!-- タコの胴体 -->
  <ellipse cx="50" cy="42" rx="16" ry="14" fill="#8B6A8A" stroke="#5A3A58" stroke-width="1.5"/>
  <!-- 青い輪模様（ヒョウ柄） -->
  <circle cx="44" cy="38" r="4" fill="none" stroke="#00AAFF" stroke-width="2.5"/>
  <circle cx="56" cy="38" r="4" fill="none" stroke="#00AAFF" stroke-width="2.5"/>
  <circle cx="50" cy="50" r="4" fill="none" stroke="#00AAFF" stroke-width="2.5"/>
  <!-- 目 -->
  <ellipse cx="44" cy="37" rx="2" ry="2.5" fill="#222"/>
  <ellipse cx="56" cy="37" rx="2" ry="2.5" fill="#222"/>
  <!-- 触手8本 -->
  <path d="M36,52 Q28,58 24,68" stroke="#5A3A58" stroke-width="2.5" fill="none" stroke-linecap="round"/>
  <path d="M40,55 Q35,63 33,75" stroke="#5A3A58" stroke-width="2" fill="none" stroke-linecap="round"/>
  <path d="M46,57 Q44,66 43,78" stroke="#5A3A58" stroke-width="2" fill="none" stroke-linecap="round"/>
  <path d="M54,57 Q56,66 57,78" stroke="#5A3A58" stroke-width="2" fill="none" stroke-linecap="round"/>
  <path d="M60,55 Q65,63 67,75" stroke="#5A3A58" stroke-width="2" fill="none" stroke-linecap="round"/>
  <path d="M64,52 Q72,58 76,68" stroke="#5A3A58" stroke-width="2.5" fill="none" stroke-linecap="round"/>
  <!-- 感嘆符 -->
  <text x="50" y="83" text-anchor="middle" font-size="10" font-weight="bold" fill="#CC6600">!</text>
</svg>
